<mxfile host="app.diagrams.net" modified="2024-01-15T14:18:12.209Z" agent="Mozilla/5.0 (Macintosh; Intel Mac OS X 10_15_7) AppleWebKit/537.36 (KHTML, like Gecko) Chrome/120.0.0.0 Safari/537.36" etag="Wbn0r2JzQRNXHPb9nxcO" version="22.1.18" type="device">
  <diagram name="Page-1" id="2D--7kPlCg9Rjc1dQC-g">
    <mxGraphModel dx="1126" dy="610" grid="1" gridSize="10" guides="1" tooltips="1" connect="1" arrows="1" fold="1" page="1" pageScale="1" pageWidth="827" pageHeight="1169" math="0" shadow="0">
      <root>
        <mxCell id="0" />
        <mxCell id="1" parent="0" />
        <mxCell id="meec6Yi1OHi6wWnr-_7G-16" value="" style="rounded=1;whiteSpace=wrap;html=1;fillColor=none;strokeWidth=1;dashed=1;dashPattern=8 8;" vertex="1" parent="1">
          <mxGeometry x="20" y="140" width="760" height="180" as="geometry" />
        </mxCell>
        <mxCell id="meec6Yi1OHi6wWnr-_7G-11" value="" style="edgeStyle=orthogonalEdgeStyle;rounded=0;orthogonalLoop=1;jettySize=auto;html=1;strokeWidth=3;" edge="1" parent="1" source="meec6Yi1OHi6wWnr-_7G-1" target="meec6Yi1OHi6wWnr-_7G-2">
          <mxGeometry relative="1" as="geometry" />
        </mxCell>
        <mxCell id="meec6Yi1OHi6wWnr-_7G-1" value="Data Source" style="image;aspect=fixed;html=1;points=[];align=center;fontSize=15;image=img/lib/azure2/general/File.svg;" vertex="1" parent="1">
          <mxGeometry x="610" y="200" width="56.00000000000001" height="69" as="geometry" />
        </mxCell>
        <mxCell id="meec6Yi1OHi6wWnr-_7G-7" value="" style="edgeStyle=orthogonalEdgeStyle;rounded=0;orthogonalLoop=1;jettySize=auto;html=1;strokeWidth=3;" edge="1" parent="1" source="meec6Yi1OHi6wWnr-_7G-2" target="meec6Yi1OHi6wWnr-_7G-3">
          <mxGeometry relative="1" as="geometry" />
        </mxCell>
        <mxCell id="meec6Yi1OHi6wWnr-_7G-2" value="Data Modelling" style="rounded=0;whiteSpace=wrap;html=1;fontSize=18;strokeWidth=2;strokeColor=#6c8ebf;fillColor=#dae8fc;" vertex="1" parent="1">
          <mxGeometry x="440" y="191.75" width="120" height="85.5" as="geometry" />
        </mxCell>
        <mxCell id="meec6Yi1OHi6wWnr-_7G-8" value="" style="edgeStyle=orthogonalEdgeStyle;rounded=0;orthogonalLoop=1;jettySize=auto;html=1;strokeWidth=3;" edge="1" parent="1" source="meec6Yi1OHi6wWnr-_7G-3" target="meec6Yi1OHi6wWnr-_7G-4">
          <mxGeometry relative="1" as="geometry" />
        </mxCell>
        <mxCell id="meec6Yi1OHi6wWnr-_7G-3" value="Prepared&lt;br style=&quot;font-size: 15px;&quot;&gt;Data Source" style="image;aspect=fixed;html=1;points=[];align=center;fontSize=15;image=img/lib/azure2/general/File.svg;" vertex="1" parent="1">
          <mxGeometry x="330" y="200" width="56.00000000000001" height="69" as="geometry" />
        </mxCell>
        <mxCell id="meec6Yi1OHi6wWnr-_7G-9" value="" style="edgeStyle=orthogonalEdgeStyle;rounded=0;orthogonalLoop=1;jettySize=auto;html=1;strokeWidth=3;" edge="1" parent="1" source="meec6Yi1OHi6wWnr-_7G-4" target="meec6Yi1OHi6wWnr-_7G-5">
          <mxGeometry relative="1" as="geometry" />
        </mxCell>
        <mxCell id="meec6Yi1OHi6wWnr-_7G-4" value="Data Visualisation" style="rounded=0;whiteSpace=wrap;html=1;fontSize=18;strokeWidth=2;strokeColor=#6c8ebf;fillColor=#dae8fc;" vertex="1" parent="1">
          <mxGeometry x="160" y="191.75" width="120" height="85.5" as="geometry" />
        </mxCell>
        <mxCell id="meec6Yi1OHi6wWnr-_7G-5" value="Reports" style="shape=image;html=1;verticalAlign=top;verticalLabelPosition=bottom;labelBackgroundColor=#ffffff;imageAspect=0;aspect=fixed;image=https://cdn1.iconfinder.com/data/icons/icons-for-a-site-1/64/advantage_diagram-128.png;fontSize=15;" vertex="1" parent="1">
          <mxGeometry x="30" y="194.5" width="80" height="80" as="geometry" />
        </mxCell>
        <mxCell id="meec6Yi1OHi6wWnr-_7G-14" value="" style="edgeStyle=orthogonalEdgeStyle;rounded=0;orthogonalLoop=1;jettySize=auto;html=1;strokeWidth=3;" edge="1" parent="1" source="meec6Yi1OHi6wWnr-_7G-12" target="meec6Yi1OHi6wWnr-_7G-1">
          <mxGeometry relative="1" as="geometry" />
        </mxCell>
        <mxCell id="meec6Yi1OHi6wWnr-_7G-12" value="Data Connector" style="rounded=0;whiteSpace=wrap;html=1;fontSize=18;strokeWidth=2;strokeColor=#6c8ebf;fillColor=#dae8fc;" vertex="1" parent="1">
          <mxGeometry x="720" y="191.75" width="120" height="85.5" as="geometry" />
        </mxCell>
        <mxCell id="meec6Yi1OHi6wWnr-_7G-17" value="Google Looker Studio" style="text;html=1;align=center;verticalAlign=middle;resizable=0;points=[];autosize=1;strokeColor=none;fillColor=none;fontSize=13;fontStyle=1" vertex="1" parent="1">
          <mxGeometry x="23" y="140" width="160" height="30" as="geometry" />
        </mxCell>
        <mxCell id="meec6Yi1OHi6wWnr-_7G-21" value="" style="edgeStyle=orthogonalEdgeStyle;rounded=0;orthogonalLoop=1;jettySize=auto;html=1;strokeWidth=3;" edge="1" parent="1" source="meec6Yi1OHi6wWnr-_7G-18" target="meec6Yi1OHi6wWnr-_7G-12">
          <mxGeometry relative="1" as="geometry" />
        </mxCell>
        <mxCell id="meec6Yi1OHi6wWnr-_7G-18" value="Google&lt;br style=&quot;font-size: 14px;&quot;&gt;Storage" style="shape=cylinder3;whiteSpace=wrap;html=1;boundedLbl=1;backgroundOutline=1;size=15;strokeWidth=2;fillColor=#dae8fc;strokeColor=#6c8ebf;fontSize=14;" vertex="1" parent="1">
          <mxGeometry x="910" y="195" width="60" height="80" as="geometry" />
        </mxCell>
        <mxCell id="meec6Yi1OHi6wWnr-_7G-20" value="" style="edgeStyle=orthogonalEdgeStyle;rounded=0;orthogonalLoop=1;jettySize=auto;html=1;strokeWidth=3;" edge="1" parent="1" source="meec6Yi1OHi6wWnr-_7G-19" target="meec6Yi1OHi6wWnr-_7G-18">
          <mxGeometry relative="1" as="geometry" />
        </mxCell>
        <mxCell id="meec6Yi1OHi6wWnr-_7G-19" value="Lego csv" style="image;aspect=fixed;html=1;points=[];align=center;fontSize=15;image=img/lib/azure2/general/File.svg;" vertex="1" parent="1">
          <mxGeometry x="1040" y="200" width="56.00000000000001" height="69" as="geometry" />
        </mxCell>
      </root>
    </mxGraphModel>
  </diagram>
</mxfile>
